<svg aria-hidden="true" style="position: absolute; width: 0; height: 0; overflow: hidden;" version="1.1" xmlns="http://www.w3.org/2000/svg" xmlns:xlink="http://www.w3.org/1999/xlink">
<defs>
<symbol id="icon-facebook" viewBox="0 0 31 32">
<path d="M17.718 31.214h-5.009c-0.837 0-1.517-0.665-1.517-1.482v-11.033h-2.923c-0.837 0-1.517-0.665-1.517-1.482v-4.727c0-0.817 0.681-1.482 1.517-1.482h2.923v-2.367c0-2.347 0.755-4.344 2.183-5.775 1.434-1.437 3.439-2.197 5.797-2.197l3.82 0.006c0.835 0.001 1.515 0.666 1.515 1.482v4.389c0 0.817-0.68 1.482-1.517 1.482l-2.572 0.001c-0.784 0-0.984 0.154-1.027 0.201-0.070 0.078-0.154 0.299-0.154 0.908v1.87h3.56c0.268 0 0.528 0.065 0.751 0.186 0.481 0.263 0.781 0.759 0.781 1.296l-0.002 4.727c0 0.817-0.681 1.481-1.517 1.481h-3.572v11.033c0 0.817-0.681 1.482-1.518 1.482zM13.025 29.423h4.376v-11.525c0-0.546 0.455-0.989 1.013-0.989h4.077l0.002-4.109h-4.079c-0.558 0-1.013-0.444-1.013-0.989v-2.672c0-0.7 0.073-1.495 0.614-2.093 0.653-0.723 1.683-0.806 2.401-0.806l2.256-0.001v-3.772l-3.503-0.006c-3.789 0-6.144 2.369-6.144 6.181v3.169c0 0.545-0.454 0.989-1.013 0.989h-3.427v4.109h3.427c0.558 0 1.013 0.444 1.013 0.989v11.525zM22.987 2.467v0z"></path>
</symbol>
<symbol id="icon-h" viewBox="0 0 26 32">
<path d="M0.215 32h-1.096c0 0.605 0.491 1.096 1.096 1.096v-1.096zM0.215 0.12v-1.096c-0.605 0-1.096 0.491-1.096 1.096h1.096zM5.025 0.12h1.096c0-0.605-0.491-1.096-1.096-1.096v1.096zM5.025 13.974h-1.096c0 0.605 0.491 1.096 1.096 1.096v-1.096zM20.918 13.974v1.096c0.605 0 1.096-0.491 1.096-1.096h-1.096zM20.918 0.12v-1.096c-0.605 0-1.096 0.491-1.096 1.096h1.096zM25.744 0.12h1.096c0-0.605-0.491-1.096-1.096-1.096v1.096zM25.744 32v1.096c0.605 0 1.096-0.491 1.096-1.096h-1.096zM20.918 32h-1.096c0 0.605 0.491 1.096 1.096 1.096v-1.096zM20.918 18.099h1.096c0-0.605-0.491-1.096-1.096-1.096v1.096zM5.025 18.099v-1.096c-0.605 0-1.096 0.491-1.096 1.096h1.096zM5.025 32v1.096c0.605 0 1.096-0.491 1.096-1.096h-1.096zM1.311 32v-31.88h-2.192v31.88h2.192zM0.215 1.215h4.81v-2.192h-4.81v2.192zM3.929 0.12v13.854h2.192v-13.854h-2.192zM5.025 15.070h15.894v-2.192h-15.894v2.192zM22.014 13.974v-13.854h-2.192v13.854h2.192zM20.918 1.215h4.826v-2.192h-4.826v2.192zM24.648 0.12v31.88h2.192v-31.88h-2.192zM25.744 30.904h-4.826v2.192h4.826v-2.192zM22.014 32v-13.901h-2.192v13.901h2.192zM20.918 17.003h-15.894v2.192h15.894v-2.192zM3.929 18.099v13.901h2.192v-13.901h-2.192zM5.025 30.904h-4.81v2.192h4.81v-2.192z"></path>
</symbol>
<symbol id="icon-instagram" viewBox="0 0 31 32">
<path d="M22.769 0.747h-14.318c-4.66 0-8.451 3.709-8.451 8.268v14.008c0 4.559 3.791 8.268 8.451 8.268h14.318c4.66 0 8.451-3.709 8.451-8.268v-14.008c0-4.559-3.791-8.268-8.451-8.268v0zM29.389 23.023c0 3.571-2.97 6.477-6.621 6.477h-14.318c-3.651 0-6.621-2.906-6.621-6.477v-14.008c0-3.572 2.97-6.477 6.621-6.477h14.318c3.65 0 6.62 2.906 6.62 6.477v14.008z"></path>
<path d="M15.61 7.667c-4.707 0-8.536 3.746-8.536 8.352s3.829 8.352 8.536 8.352c4.707 0 8.536-3.746 8.536-8.352s-3.829-8.352-8.536-8.352zM15.61 22.579c-3.698 0-6.706-2.943-6.706-6.561s3.008-6.561 6.706-6.561c3.698 0 6.706 2.943 6.706 6.561s-3.008 6.561-6.706 6.561z"></path>
<path d="M24.35 4.701c-1.391 0-2.522 1.107-2.522 2.468s1.131 2.468 2.522 2.468c1.391 0 2.523-1.107 2.523-2.468s-1.132-2.468-2.523-2.468zM24.35 7.846c-0.382 0-0.692-0.304-0.692-0.677s0.311-0.677 0.692-0.677c0.382 0 0.692 0.304 0.692 0.677s-0.311 0.677-0.692 0.677z"></path>
</symbol>
<symbol id="icon-installation" viewBox="0 0 33 32">
<path stroke-linejoin="round" stroke-linecap="round" stroke-miterlimit="4" stroke-width="1.8286" d="M28.367 27.333c-0.254 0.248-0.555 0.445-0.887 0.579s-0.687 0.203-1.046 0.203c-0.359 0-0.714-0.069-1.046-0.203s-0.633-0.331-0.887-0.579l-7.116-6.947c-1.88 0.934-4.036 1.193-6.091 0.733-1.822-0.414-3.463-1.38-4.689-2.759s-1.975-3.101-2.139-4.921c-0.153-1.593 0.155-3.196 0.888-4.627l5.941 5.853 3.414-0.667 0.683-3.333-5.996-5.76c1.462-0.729 3.104-1.043 4.739-0.907 1.864 0.16 3.628 0.891 5.040 2.088s2.402 2.8 2.826 4.578c0.458 1.99 0.192 4.074-0.751 5.893l7.115 6.947c0.262 0.249 0.471 0.546 0.613 0.875s0.216 0.682 0.216 1.039c0 0.357-0.073 0.71-0.216 1.039s-0.351 0.626-0.613 0.875v0z"></path>
</symbol>
<symbol id="icon-speed" viewBox="0 0 33 32">
<path stroke-linejoin="round" stroke-linecap="round" stroke-miterlimit="4" stroke-width="1.8286" d="M28.865 17.333c-0.003 1.791-0.416 3.56-1.21 5.175s-1.948 3.036-3.378 4.159h-15.406c-1.62-1.272-2.883-2.923-3.671-4.801s-1.076-3.92-0.836-5.935c0.24-2.016 0.999-3.939 2.207-5.59s2.825-2.976 4.7-3.852c1.875-0.875 3.947-1.272 6.022-1.153s4.085 0.749 5.842 1.832c1.757 1.083 3.205 2.584 4.207 4.362s1.526 3.774 1.523 5.804v0z"></path>
<path stroke-linejoin="round" stroke-linecap="round" stroke-miterlimit="4" stroke-width="1.8286" d="M22.036 12l-5.463 8M17.939 20c0 0.264-0.080 0.521-0.23 0.741s-0.363 0.39-0.613 0.491c-0.25 0.101-0.524 0.127-0.789 0.076s-0.508-0.178-0.699-0.365c-0.191-0.186-0.321-0.424-0.374-0.683s-0.026-0.527 0.078-0.77c0.103-0.244 0.278-0.452 0.503-0.598s0.489-0.225 0.759-0.225c0.362 0 0.71 0.14 0.966 0.391s0.4 0.589 0.4 0.943z"></path>
</symbol>
<symbol id="icon-support" viewBox="0 0 33 32">
<path stroke-linejoin="round" stroke-linecap="round" stroke-miterlimit="4" stroke-width="1.8286" d="M16.798 28c6.788 0 12.292-5.373 12.292-12s-5.503-12-12.292-12c-6.789 0-12.292 5.373-12.292 12s5.503 12 12.292 12z"></path>
<path stroke-linejoin="round" stroke-linecap="round" stroke-miterlimit="4" stroke-width="1.8286" d="M16.798 9.333v6.667l2.731 4"></path>
</symbol>
<symbol id="icon-whatsapp" viewBox="0 0 31 32">
<path d="M26.785 5.068c-2.86-2.798-6.661-4.338-10.705-4.338-0 0-0.001 0-0.001 0-2 0-3.95 0.379-5.793 1.126s-3.496 1.828-4.911 3.212c-2.859 2.798-4.434 6.517-4.434 10.474 0 2.359 0.582 4.704 1.684 6.793l-2.545 7.113c-0.179 0.502-0.052 1.047 0.332 1.423 0.269 0.263 0.623 0.403 0.987 0.403 0.156 0 0.314-0.026 0.468-0.078l7.27-2.489c2.135 1.079 4.532 1.648 6.944 1.648 4.044 0 7.846-1.541 10.705-4.338s4.434-6.517 4.434-10.474c0-3.957-1.575-7.676-4.434-10.474zM25.49 24.749c-2.514 2.459-5.856 3.814-9.41 3.814-2.175 0-4.335-0.526-6.248-1.522-0.347-0.18-0.757-0.211-1.125-0.085l-6.605 2.262 2.312-6.462c0.129-0.36 0.097-0.762-0.087-1.101-1.018-1.871-1.556-3.984-1.556-6.112 0-3.478 1.384-6.748 3.898-9.207s5.855-3.813 9.409-3.814h0.001c3.555 0 6.897 1.354 9.411 3.814s3.898 5.729 3.898 9.207c0 3.478-1.384 6.748-3.898 9.207z"></path>
<path d="M21.706 16.865c-0.697-0.681-1.83-0.681-2.526 0l-0.762 0.745c-1.891-1.008-3.422-2.506-4.453-4.356l0.762-0.745c0.697-0.681 0.697-1.79 0-2.472l-2.053-2.008c-0.696-0.681-1.83-0.681-2.526 0l-1.642 1.606c-0.941 0.92-0.987 2.502-0.132 4.455 0.743 1.695 2.102 3.559 3.827 5.246s3.63 3.018 5.363 3.744c0.948 0.398 1.811 0.596 2.556 0.596 0.823 0 1.504-0.242 1.997-0.725l1.642-1.606c0.337-0.33 0.523-0.769 0.523-1.236s-0.186-0.906-0.523-1.236l-2.053-2.009zM20.822 21.685c-0.268 0.263-1.094 0.355-2.537-0.25-1.524-0.639-3.225-1.834-4.789-3.364s-2.786-3.194-3.439-4.685c-0.619-1.412-0.524-2.22-0.256-2.482l1.611-1.576 1.989 1.947-0.953 0.933c-0.431 0.422-0.535 1.061-0.259 1.592 1.254 2.405 3.215 4.324 5.674 5.551 0.542 0.271 1.196 0.169 1.627-0.253l0.953-0.933 1.99 1.947-1.611 1.576z"></path>
<symbol id="icon-checkbox-click" viewBox="0 0 32 32">
<path fill="#000" style="fill: var(--color1, #000)" d="M4 1h24c1.657 0 3 1.343 3 3v24c0 1.657-1.343 3-3 3h-24c-1.657 0-3-1.343-3-3v-24c0-1.657 1.343-3 3-3z"></path>
<path fill="#ff0000" style="fill: var(--color2, #ff0000)" d="M22.891 8.51c0.346-0.331 0.805-0.514 1.283-0.51s0.934 0.193 1.275 0.53c0.341 0.336 0.538 0.792 0.551 1.272s-0.161 0.945-0.483 1.299l-9.789 12.309c-0.168 0.182-0.371 0.328-0.597 0.43s-0.47 0.156-0.717 0.161c-0.247 0.005-0.493-0.041-0.723-0.134s-0.438-0.232-0.613-0.408l-6.492-6.527c-0.181-0.169-0.326-0.374-0.426-0.601s-0.155-0.472-0.159-0.72c-0.004-0.248 0.041-0.495 0.134-0.725s0.23-0.44 0.405-0.615c0.175-0.176 0.383-0.314 0.612-0.407s0.475-0.139 0.722-0.134c0.247 0.004 0.491 0.059 0.716 0.16s0.429 0.247 0.597 0.429l5.137 5.163 8.521-10.915c0.015-0.019 0.032-0.037 0.049-0.054h-0.002z"></path>
<path fill="none" stroke="#000" style="stroke: var(--color1, #000)" stroke-linejoin="miter" stroke-linecap="butt" stroke-miterlimit="4" stroke-width="2" d="M4 1h24c1.657 0 3 1.343 3 3v24c0 1.657-1.343 3-3 3h-24c-1.657 0-3-1.343-3-3v-24c0-1.657 1.343-3 3-3z"></path>
</symbol>
</symbol>
</defs>
</svg>
